<?xml version="1.0" encoding="utf-8"?>
<!-- Generator: Adobe Illustrator 15.1.0, SVG Export Plug-In . SVG Version: 6.00 Build 0)  -->
<!DOCTYPE svg PUBLIC "-//W3C//DTD SVG 1.1//EN" "http://www.w3.org/Graphics/SVG/1.1/DTD/svg11.dtd">
<svg version="1.1" id="Capa_1" xmlns="http://www.w3.org/2000/svg" xmlns:xlink="http://www.w3.org/1999/xlink" x="0px" y="0px"
	 width="1128px" height="472.51px" viewBox="-292.266 -54.266 1128 472.51" enable-background="new -292.266 -54.266 1128 472.51"
	 xml:space="preserve">
<g id="code">
	<path id="slash" fill="#FFFFFF" d="M549.903,31.513l-17.706-4.854c-2.279-0.76-4.524-0.521-6.707,0.715
		c-2.19,1.237-3.669,3.094-4.43,5.568L414.567,401.53c-0.761,2.475-0.522,4.809,0.715,6.995c1.236,2.189,3.09,3.664,5.567,4.425
		l17.701,4.855c2.284,0.767,4.521,0.526,6.71-0.712c2.19-1.243,3.666-3.094,4.425-5.563L556.182,42.936
		c0.76-2.474,0.523-4.808-0.716-6.999C554.229,33.747,552.378,32.272,549.903,31.513z"/>
	<path id="left" fill="#FFFFFF" d="M-42.833,103.465c0-2.474-0.953-4.665-2.855-6.567l-14.277-14.276
		c-1.903-1.903-4.093-2.857-6.567-2.857c-2.474,0-4.664,0.955-6.566,2.857l-133.044,133.044c-1.906,1.903-2.856,4.093-2.856,6.567
		s0.953,4.664,2.856,6.566l133.043,133.044c1.902,1.906,4.089,2.854,6.566,2.854c2.479,0,4.665-0.951,6.567-2.854l14.277-14.268
		c1.902-1.902,2.855-4.093,2.855-6.57c0-2.471-0.953-4.661-2.855-6.563l-112.203-112.208l112.204-112.201
		C-43.783,108.13-42.833,105.939-42.833,103.465z"/>
	<path id="right" fill="#FFFFFF" d="M743.755,215.663L610.708,82.619c-1.902-1.902-4.093-2.857-6.563-2.857
		c-2.479,0-4.661,0.955-6.57,2.857l-14.271,14.275c-1.901,1.903-2.851,4.09-2.851,6.567s0.948,4.665,2.851,6.567L695.51,222.232
		L583.303,334.441c-1.901,1.902-2.851,4.094-2.851,6.563c0,2.478,0.948,4.668,2.851,6.57l14.271,14.268
		c1.909,1.906,4.093,2.854,6.57,2.854c2.471,0,4.66-0.951,6.563-2.854L743.755,228.8c1.903-1.901,2.854-4.096,2.854-6.57
		C746.609,219.755,745.658,217.565,743.755,215.663z"/>
</g>
<path id="brush" fill="#FFFFFF" d="M254.217,185.361l52.803-62.847c12.473-0.047,36.309-3.398,57.852-24.941
	c43.723-43.721,8.111-126.358,6.574-129.854c-1.723-3.92-5.869-6.191-10.1-5.533c-4.234,0.651-7.502,4.075-7.969,8.333
	c-0.035,0.323-3.789,32.498-23.721,34.574c-2.428,0.252-4.725,0.375-7.023,0.375c-5.758,0-10.238-0.784-14.572-1.543
	c-3.834-0.67-7.459-1.304-11.42-1.304c-8.762,0-16.742,3.306-25.883,10.722c-18.766,15.229-21.194,41.579-21.254,53.642
	l-61.766,51.895l-67.689-67.691c-0.034-0.032-0.072-0.054-0.107-0.086c-0.368-0.357-0.766-0.682-1.19-0.977
	c-0.077-0.055-0.151-0.113-0.231-0.164c-0.363-0.237-0.737-0.456-1.135-0.644L50.297,17.736L23.374,5.061
	C19.76,3.355,15.47,4.107,12.651,6.931c-0.318,0.322-0.602,0.663-0.869,1.018c-0.028,0.036-0.061,0.068-0.089,0.104
	c-0.168,0.231-0.301,0.482-0.448,0.726c-0.102,0.171-0.223,0.334-0.315,0.512c-0.09,0.174-0.147,0.358-0.227,0.536
	c-0.114,0.261-0.244,0.518-0.331,0.787c-0.051,0.151-0.077,0.309-0.118,0.465c-0.085,0.304-0.177,0.607-0.234,0.919
	c-0.028,0.164-0.028,0.327-0.046,0.493c-0.038,0.31-0.083,0.619-0.091,0.932c-0.003,0.151,0.021,0.303,0.025,0.455
	c0.01,0.326,0.011,0.652,0.053,0.979c0.018,0.14,0.062,0.279,0.085,0.419c0.06,0.335,0.115,0.672,0.212,1
	c0.046,0.158,0.122,0.307,0.176,0.462c0.106,0.308,0.205,0.617,0.346,0.916l44.259,94.011c0.182,0.386,0.392,0.75,0.618,1.104
	c0.046,0.072,0.103,0.137,0.149,0.208c0.307,0.447,0.647,0.867,1.022,1.252c0.031,0.03,0.049,0.066,0.077,0.097l74.588,74.586
	c-27.005,28.449-54.849,60.302-76.375,87.555c-14.497,18.354-25.428,33.656-32.488,45.489c-7.816,13.092-13.936,26.32-5.875,34.383
	c1.729,1.726,4.817,3.785,9.735,3.785c24.364,0,104.882-68.513,157.673-118.539l123.886,123.886c1.85,1.85,4.27,2.772,6.689,2.772
	c2.426,0,4.846-0.923,6.693-2.772l18.186-18.185L88.477,96.137l13.383-13.38l251.144,251.14l18.189-18.187
	c3.695-3.693,3.695-9.684,0-13.377L254.217,185.361z M66.429,91.428L49.864,56.24l12.097-12.096l35.186,16.564L66.429,91.428z
	 M201.169,132.308l56.753-47.684l30.549,30.551l-47.682,56.754L201.169,132.308z"/>
<g>
	<path fill="#FFFFFF" d="M-33.806,276.992c18.239,0,27.36-6.238,27.36-18.721c0-3.839-0.81-7.11-2.43-9.81
		c-1.62-2.7-3.811-5.04-6.57-7.02c-2.762-1.98-5.912-3.69-9.45-5.13c-3.541-1.44-7.29-2.88-11.25-4.32
		c-4.562-1.558-8.882-3.33-12.96-5.31c-4.081-1.98-7.622-4.32-10.62-7.02c-3.001-2.7-5.372-5.909-7.11-9.63
		c-1.741-3.718-2.61-8.218-2.61-13.5c0-10.918,3.718-19.44,11.16-25.56c7.439-6.12,17.699-9.18,30.78-9.18
		c7.56,0,14.428,0.81,20.61,2.43c6.179,1.62,10.71,3.392,13.59,5.31l-5.58,14.22c-2.52-1.558-6.272-3.088-11.25-4.59
		c-4.981-1.499-10.772-2.25-17.37-2.25c-3.361,0-6.48,0.36-9.36,1.08c-2.88,0.72-5.4,1.8-7.56,3.24c-2.16,1.44-3.87,3.271-5.13,5.49
		c-1.26,2.222-1.89,4.832-1.89,7.83c0,3.361,0.658,6.182,1.98,8.46c1.319,2.281,3.178,4.292,5.58,6.03
		c2.399,1.741,5.189,3.33,8.37,4.77c3.178,1.44,6.688,2.88,10.53,4.32c5.4,2.16,10.35,4.32,14.85,6.48
		c4.5,2.16,8.398,4.742,11.7,7.74c3.299,3.001,5.85,6.57,7.65,10.71s2.7,9.152,2.7,15.03c0,10.921-3.991,19.322-11.97,25.199
		c-7.982,5.881-19.232,8.82-33.75,8.82c-4.922,0-9.45-0.332-13.59-0.99c-4.14-0.66-7.83-1.439-11.07-2.34
		c-3.24-0.899-6.03-1.859-8.37-2.879c-2.34-1.02-4.171-1.891-5.49-2.611l5.22-14.399c2.759,1.562,6.958,3.302,12.6,5.22
		C-48.867,276.033-41.968,276.992-33.806,276.992z"/>
	<path fill="#FFFFFF" d="M111.454,164.671h17.46v124.741h-17.46v-57.601h-61.02v57.601h-17.46V164.671h17.46v52.02h61.02V164.671z"
		/>
	<path fill="#FFFFFF" d="M154.831,226.952c0-10.679,1.589-20.098,4.77-28.26c3.178-8.159,7.498-14.968,12.96-20.43
		c5.459-5.459,11.818-9.568,19.08-12.33c7.259-2.759,14.968-4.14,23.13-4.14c8.038,0,15.629,1.381,22.771,4.14
		c7.138,2.762,13.409,6.871,18.81,12.33c5.4,5.462,9.689,12.271,12.87,20.43c3.178,8.162,4.77,17.581,4.77,28.26
		c0,10.682-1.592,20.101-4.77,28.26c-3.181,8.162-7.47,14.971-12.87,20.43c-5.4,5.462-11.672,9.571-18.81,12.33
		c-7.142,2.759-14.732,4.14-22.771,4.14c-8.162,0-15.871-1.381-23.13-4.14c-7.262-2.759-13.621-6.868-19.08-12.33
		c-5.462-5.459-9.782-12.269-12.96-20.43C156.421,247.053,154.831,237.633,154.831,226.952z M173.191,226.952
		c0,7.56,0.959,14.431,2.88,20.61c1.918,6.182,4.649,11.43,8.19,15.75c3.538,4.32,7.858,7.649,12.96,9.99
		c5.099,2.34,10.828,3.51,17.19,3.51c6.359,0,12.06-1.17,17.1-3.51c5.04-2.341,9.329-5.67,12.87-9.99
		c3.538-4.32,6.269-9.568,8.189-15.75c1.918-6.179,2.88-13.05,2.88-20.61s-0.962-14.428-2.88-20.61
		c-1.921-6.179-4.651-11.43-8.189-15.75c-3.541-4.32-7.83-7.65-12.87-9.99s-10.741-3.51-17.1-3.51c-6.362,0-12.091,1.17-17.19,3.51
		c-5.102,2.34-9.422,5.67-12.96,9.99c-3.541,4.32-6.272,9.571-8.19,15.75C174.151,212.523,173.191,219.392,173.191,226.952z"/>
	<path fill="#FFFFFF" d="M365.253,204.812c-5.04,16.082-10.142,30.96-15.3,44.64c-5.161,13.68-10.322,27-15.48,39.96h-17.46
		c-6.362-18.36-11.97-37.739-16.83-58.141c-4.86-20.399-9.391-42.598-13.59-66.6h18.36c1.679,9.36,3.42,18.72,5.22,28.08
		c1.8,9.36,3.659,18.45,5.58,27.27c1.918,8.82,3.839,17.252,5.76,25.29c1.918,8.041,3.898,15.48,5.94,22.32
		c4.798-12.6,9.899-26.429,15.3-41.49c5.399-15.058,10.439-30.628,15.12-46.71h15.12c4.68,16.082,9.778,31.652,15.3,46.71
		c5.518,15.061,10.679,28.89,15.479,41.49c1.918-6.719,3.839-14.099,5.761-22.14c1.918-8.038,3.808-16.47,5.67-25.29
		c1.858-8.82,3.689-17.938,5.489-27.36c1.801-9.419,3.538-18.81,5.221-28.17h17.819c-4.319,24.002-8.91,46.201-13.77,66.6
		c-4.86,20.402-10.412,39.78-16.65,58.141h-17.46c-5.281-12.961-10.439-26.28-15.479-39.96S370.293,220.894,365.253,204.812z"/>
</g>
</svg>
